STARTFONT 2.1
COMMENT Copyright (C) 1990-1991 EWT Consulting
COMMENT Portions Copyright (C) 1994-1995 Cronyx Ltd.
COMMENT Changes Copyright (C) 1996 by Andrey A. Chernov, Moscow, Russia.
COMMENT Modified by Serge Vakulenko, <vak@cronyx.ru>
COMMENT This software may be used, modified, copied, distributed, and sold,
COMMENT in both source and binary form provided that the copyright
COMMENT and these terms are retained. Under no circumstances is the author
COMMENT responsible for the proper functioning of this software, nor does
COMMENT the author assume any responsibility for damages incurred with its use.
COMMENT $XFree86: xc/fonts/bdf/cyrillic/crox3ho.bdf,v 3.2 1996/09/01 12:18:19 dawes Exp $
FONT -Cronyx-Helvetica-Medium-O-Normal--17-120-100-100-P-67-KOI8-R
SIZE 12 96 96
FONTBOUNDINGBOX 22 20 -1 -4
STARTPROPERTIES 19
DEFAULT_CHAR 32
FONT_ASCENT 16
FONT_DESCENT 4
SPACING "P"
FONTNAME_REGISTRY ""
FOUNDRY "Cronyx"
FAMILY_NAME "Helvetica"
WEIGHT_NAME "Medium"
SLANT "O"
SETWIDTH_NAME "Normal"
ADD_STYLE_NAME ""
AVERAGE_WIDTH 67
CHARSET_REGISTRY "KOI8"
CHARSET_ENCODING "R"
PIXEL_SIZE 17
POINT_SIZE 120
RESOLUTION_X 100
RESOLUTION_Y 100
COPYRIGHT "Copyright (C) 1990, 1991 EWT Consulting, Portions Copyright (C) 1994 Cronyx Ltd., Portions Copyright (C) 1996 by Andrey A. Chernov, Moscow, Russia."
ENDPROPERTIES
CHARS 224
STARTCHAR space
ENCODING 32
SWIDTH 200 0
DWIDTH 4 0
BBX 10 20 -1 -4
BITMAP
0000
0000
0000
0000
0000
0000
0000
0000
0000
0000
0000
0000
0000
0000
0000
0000
0000
0000
0000
0000
ENDCHAR
STARTCHAR exclam
ENCODING 33
SWIDTH 200 0
DWIDTH 4 0
BBX 10 20 -1 -4
BITMAP
0000
0000
0000
0000
0080
0100
0100
0100
0200
0200
0200
0400
0400
0000
0000
0800
0000
0000
0000
0000
ENDCHAR
STARTCHAR quotedbl
ENCODING 34
SWIDTH 300 0
DWIDTH 6 0
BBX 12 20 -1 -4
BITMAP
0000
0000
0000
0000
0120
0240
0240
0240
0000
0000
0000
0000
0000
0000
0000
0000
0000
0000
0000
0000
ENDCHAR
STARTCHAR numbersign
ENCODING 35
SWIDTH 450 0
DWIDTH 9 0
BBX 15 20 -1 -4
BITMAP
0000
0000
0000
0000
0048
0090
0090
03F8
0240
0240
0240
0480
1FC0
0900
1200
1200
0000
0000
0000
0000
ENDCHAR
STARTCHAR dollar
ENCODING 36
SWIDTH 450 0
DWIDTH 9 0
BBX 15 20 -1 -4
BITMAP
0000
0000
0000
0020
0070
0150
0248
0240
0280
01C0
00A0
0120
0120
0920
0A80
0700
0200
0000
0000
0000
ENDCHAR
STARTCHAR percent
ENCODING 37
SWIDTH 700 0
DWIDTH 14 0
BBX 20 20 -1 -4
BITMAP
000000
000000
000000
000000
00E020
022080
022100
022200
038800
001000
002000
008E00
011100
021100
082200
101C00
000000
000000
000000
000000
ENDCHAR
STARTCHAR ampersand
ENCODING 38
SWIDTH 550 0
DWIDTH 11 0
BBX 17 20 -1 -4
BITMAP
000000
000000
000000
000000
006000
012000
012000
012000
018000
018000
024000
084800
082800
081000
085000
078800
000000
000000
000000
000000
ENDCHAR
STARTCHAR quoteright
ENCODING 39
SWIDTH 150 0
DWIDTH 3 0
BBX 9 20 -1 -4
BITMAP
0000
0000
0000
0000
0100
0200
0200
0200
0000
0000
0000
0000
0000
0000
0000
0000
0000
0000
0000
0000
ENDCHAR
STARTCHAR parenleft
ENCODING 40
SWIDTH 250 0
DWIDTH 5 0
BBX 11 20 -1 -4
BITMAP
0000
0000
0000
0040
0080
0100
0100
0200
0400
0400
0400
0800
0800
0800
1000
0800
0800
1000
0800
0000
ENDCHAR
STARTCHAR parenright
ENCODING 41
SWIDTH 250 0
DWIDTH 5 0
BBX 11 20 -1 -4
BITMAP
0000
0000
0000
0100
0080
0100
0100
0080
0100
0100
0100
0200
0200
0200
0400
0800
0800
1000
2000
0000
ENDCHAR
STARTCHAR asterisk
ENCODING 42
SWIDTH 300 0
DWIDTH 6 0
BBX 12 20 -1 -4
BITMAP
0000
0000
0000
0040
0150
01C0
0140
0220
0000
0000
0000
0000
0000
0000
0000
0000
0000
0000
0000
0000
ENDCHAR
STARTCHAR plus
ENCODING 43
SWIDTH 450 0
DWIDTH 9 0
BBX 15 20 -1 -4
BITMAP
0000
0000
0000
0000
0000
0000
0000
0040
0080
0080
07F0
0100
0100
0100
0000
0000
0000
0000
0000
0000
ENDCHAR
STARTCHAR comma
ENCODING 44
SWIDTH 200 0
DWIDTH 4 0
BBX 10 20 -1 -4
BITMAP
0000
0000
0000
0000
0000
0000
0000
0000
0000
0000
0000
0000
0000
0000
0000
0800
1000
0000
0000
0000
ENDCHAR
STARTCHAR minus
ENCODING 45
SWIDTH 250 0
DWIDTH 5 0
BBX 11 20 -1 -4
BITMAP
0000
0000
0000
0000
0000
0000
0000
0000
0000
0000
0F80
0000
0000
0000
0000
0000
0000
0000
0000
0000
ENDCHAR
STARTCHAR period
ENCODING 46
SWIDTH 200 0
DWIDTH 4 0
BBX 10 20 -1 -4
BITMAP
0000
0000
0000
0000
0000
0000
0000
0000
0000
0000
0000
0000
0000
0000
0000
0800
0000
0000
0000
0000
ENDCHAR
STARTCHAR slash
ENCODING 47
SWIDTH 200 0
DWIDTH 4 0
BBX 10 20 -1 -4
BITMAP
0000
0000
0000
0000
0040
0080
0080
0080
0200
0200
0200
0400
0800
0800
1000
1000
2000
0000
0000
0000
ENDCHAR
STARTCHAR zero
ENCODING 48
SWIDTH 450 0
DWIDTH 9 0
BBX 15 20 -1 -4
BITMAP
0000
0000
0000
0000
0070
0110
0110
0208
0410
0410
0410
0820
0820
0440
0880
0700
0000
0000
0000
0000
ENDCHAR
STARTCHAR one
ENCODING 49
SWIDTH 450 0
DWIDTH 9 0
BBX 15 20 -1 -4
BITMAP
0000
0000
0000
0000
0020
01C0
0040
0040
0080
0080
0080
0100
0100
0100
0200
0200
0000
0000
0000
0000
ENDCHAR
STARTCHAR two
ENCODING 50
SWIDTH 450 0
DWIDTH 9 0
BBX 15 20 -1 -4
BITMAP
0000
0000
0000
0000
0070
0110
0208
0208
0010
0020
0040
0100
0200
0400
1000
1FC0
0000
0000
0000
0000
ENDCHAR
STARTCHAR three
ENCODING 51
SWIDTH 450 0
DWIDTH 9 0
BBX 15 20 -1 -4
BITMAP
0000
0000
0000
0000
0070
0110
0208
0208
0020
01C0
0020
0020
0820
0820
0880
0700
0000
0000
0000
0000
ENDCHAR
STARTCHAR four
ENCODING 52
SWIDTH 450 0
DWIDTH 9 0
BBX 15 20 -1 -4
BITMAP
0000
0000
0000
0000
0008
0030
0030
0050
0120
0120
0220
0840
0FE0
0040
0080
0080
0000
0000
0000
0000
ENDCHAR
STARTCHAR five
ENCODING 53
SWIDTH 450 0
DWIDTH 9 0
BBX 15 20 -1 -4
BITMAP
0000
0000
0000
0000
01FC
0200
0200
0200
05C0
0620
0410
0020
0820
0820
0880
0700
0000
0000
0000
0000
ENDCHAR
STARTCHAR six
ENCODING 54
SWIDTH 450 0
DWIDTH 9 0
BBX 15 20 -1 -4
BITMAP
0000
0000
0000
0000
0070
0110
0208
0200
05C0
0620
0410
0820
0820
0820
0880
0700
0000
0000
0000
0000
ENDCHAR
STARTCHAR seven
ENCODING 55
SWIDTH 450 0
DWIDTH 9 0
BBX 15 20 -1 -4
BITMAP
0000
0000
0000
0000
01FC
0008
0008
0010
0020
0040
0040
0080
0100
0100
0200
0200
0000
0000
0000
0000
ENDCHAR
STARTCHAR eight
ENCODING 56
SWIDTH 450 0
DWIDTH 9 0
BBX 15 20 -1 -4
BITMAP
0000
0000
0000
0000
0070
0110
0208
0208
0220
01C0
0220
0820
0820
0820
0880
0700
0000
0000
0000
0000
ENDCHAR
STARTCHAR nine
ENCODING 57
SWIDTH 450 0
DWIDTH 9 0
BBX 15 20 -1 -4
BITMAP
0000
0000
0000
0000
0070
0110
0208
0208
0410
0410
0230
03A0
0020
0820
0880
0700
0000
0000
0000
0000
ENDCHAR
STARTCHAR colon
ENCODING 58
SWIDTH 200 0
DWIDTH 4 0
BBX 10 20 -1 -4
BITMAP
0000
0000
0000
0000
0000
0000
0000
0100
0000
0000
0000
0000
0000
0000
0000
0800
0000
0000
0000
0000
ENDCHAR
STARTCHAR semicolon
ENCODING 59
SWIDTH 200 0
DWIDTH 4 0
BBX 10 20 -1 -4
BITMAP
0000
0000
0000
0000
0000
0000
0000
0100
0000
0000
0000
0000
0000
0000
0000
0800
1000
0000
0000
0000
ENDCHAR
STARTCHAR less
ENCODING 60
SWIDTH 450 0
DWIDTH 9 0
BBX 15 20 -1 -4
BITMAP
0000
0000
0000
0000
0000
0000
0000
0018
00C0
0300
0400
0600
0180
0060
0000
0000
0000
0000
0000
0000
ENDCHAR
STARTCHAR equal
ENCODING 61
SWIDTH 450 0
DWIDTH 9 0
BBX 15 20 -1 -4
BITMAP
0000
0000
0000
0000
0000
0000
0000
0000
07F0
0000
0000
0FE0
0000
0000
0000
0000
0000
0000
0000
0000
ENDCHAR
STARTCHAR greater
ENCODING 62
SWIDTH 450 0
DWIDTH 9 0
BBX 15 20 -1 -4
BITMAP
0000
0000
0000
0000
0000
0000
0000
0300
0180
0060
0010
00C0
0300
0C00
0000
0000
0000
0000
0000
0000
ENDCHAR
STARTCHAR question
ENCODING 63
SWIDTH 450 0
DWIDTH 9 0
BBX 15 20 -1 -4
BITMAP
0000
0000
0000
0000
0070
0110
0208
0208
0010
0020
0040
0100
0100
0000
0000
0200
0000
0000
0000
0000
ENDCHAR
STARTCHAR at
ENCODING 64
SWIDTH 800 0
DWIDTH 16 0
BBX 22 20 -1 -4
BITMAP
000000
000000
000000
000000
000FC0
006040
008020
010E10
022220
044220
044220
088C80
087700
040000
060600
01F800
000000
000000
000000
000000
ENDCHAR
STARTCHAR A
ENCODING 65
SWIDTH 550 0
DWIDTH 11 0
BBX 17 20 -1 -4
BITMAP
000000
000000
000000
000000
001000
002000
005000
005000
011000
011000
020800
041000
0FF800
080800
200800
200800
000000
000000
000000
000000
ENDCHAR
STARTCHAR B
ENCODING 66
SWIDTH 550 0
DWIDTH 11 0
BBX 17 20 -1 -4
BITMAP
000000
000000
000000
000000
00FC00
010400
010200
010200
020800
03F000
020800
040800
040800
040800
082000
0FC000
000000
000000
000000
000000
ENDCHAR
STARTCHAR C
ENCODING 67
SWIDTH 550 0
DWIDTH 11 0
BBX 17 20 -1 -4
BITMAP
000000
000000
000000
000000
003C00
018600
010200
020100
040000
040000
040000
080000
080400
040800
0C3000
03C000
000000
000000
000000
000000
ENDCHAR
STARTCHAR D
ENCODING 68
SWIDTH 600 0
DWIDTH 12 0
BBX 18 20 -1 -4
BITMAP
000000
000000
000000
000000
00FC00
010600
010200
010100
020200
020200
020200
040400
040400
040800
083000
0FC000
000000
000000
000000
000000
ENDCHAR
STARTCHAR E
ENCODING 69
SWIDTH 550 0
DWIDTH 11 0
BBX 17 20 -1 -4
BITMAP
000000
000000
000000
000000
00FF00
010000
010000
010000
020000
03F800
020000
040000
040000
040000
080000
0FF000
000000
000000
000000
000000
ENDCHAR
STARTCHAR F
ENCODING 70
SWIDTH 500 0
DWIDTH 10 0
BBX 16 20 -1 -4
BITMAP
0000
0000
0000
0000
00FF
0100
0100
0100
0200
03F8
0200
0400
0400
0400
0800
0800
0000
0000
0000
0000
ENDCHAR
STARTCHAR G
ENCODING 71
SWIDTH 650 0
DWIDTH 13 0
BBX 19 20 -1 -4
BITMAP
000000
000000
000000
000000
003C00
018600
010200
020100
040000
040000
043E00
080400
080400
040C00
0C3800
03C800
000000
000000
000000
000000
ENDCHAR
STARTCHAR H
ENCODING 72
SWIDTH 600 0
DWIDTH 12 0
BBX 18 20 -1 -4
BITMAP
000000
000000
000000
000000
008100
010200
010200
010200
020400
03FC00
020400
040800
040800
040800
081000
081000
000000
000000
000000
000000
ENDCHAR
STARTCHAR I
ENCODING 73
SWIDTH 250 0
DWIDTH 5 0
BBX 11 20 -1 -4
BITMAP
0000
0000
0000
0000
0080
0100
0100
0100
0200
0200
0200
0400
0400
0400
0800
0800
0000
0000
0000
0000
ENDCHAR
STARTCHAR J
ENCODING 74
SWIDTH 400 0
DWIDTH 8 0
BBX 14 20 -1 -4
BITMAP
0000
0000
0000
0000
0010
0020
0020
0020
0040
0040
0040
0080
1080
1080
2100
1E00
0000
0000
0000
0000
ENDCHAR
STARTCHAR K
ENCODING 75
SWIDTH 500 0
DWIDTH 10 0
BBX 16 20 -1 -4
BITMAP
0000
0000
0000
0000
0082
0108
0110
0120
0280
0300
0280
0480
0440
0420
0820
0810
0000
0000
0000
0000
ENDCHAR
STARTCHAR L
ENCODING 76
SWIDTH 450 0
DWIDTH 9 0
BBX 15 20 -1 -4
BITMAP
0000
0000
0000
0000
0080
0100
0100
0100
0200
0200
0200
0400
0400
0400
0800
0FE0
0000
0000
0000
0000
ENDCHAR
STARTCHAR M
ENCODING 77
SWIDTH 650 0
DWIDTH 13 0
BBX 19 20 -1 -4
BITMAP
000000
000000
000000
000000
008080
010100
018300
018300
028A00
028A00
025200
04A400
044400
044400
080800
080800
000000
000000
000000
000000
ENDCHAR
STARTCHAR N
ENCODING 78
SWIDTH 550 0
DWIDTH 11 0
BBX 17 20 -1 -4
BITMAP
000000
000000
000000
000000
008200
018400
018400
014400
028800
024800
024800
045000
045000
043000
086000
082000
000000
000000
000000
000000
ENDCHAR
STARTCHAR O
ENCODING 79
SWIDTH 600 0
DWIDTH 12 0
BBX 18 20 -1 -4
BITMAP
000000
000000
000000
000000
003C00
018600
010200
020100
040200
040200
040200
080400
080400
040800
0C3000
03C000
000000
000000
000000
000000
ENDCHAR
STARTCHAR P
ENCODING 80
SWIDTH 500 0
DWIDTH 10 0
BBX 16 20 -1 -4
BITMAP
0000
0000
0000
0000
00FC
0104
0102
0102
0204
0208
03F0
0400
0400
0400
0800
0800
0000
0000
0000
0000
ENDCHAR
STARTCHAR Q
ENCODING 81
SWIDTH 600 0
DWIDTH 12 0
BBX 18 20 -1 -4
BITMAP
000000
000000
000000
000000
003C00
018600
010200
020100
040200
040200
040200
080400
084400
042800
0C3000
03D000
000800
000000
000000
000000
ENDCHAR
STARTCHAR R
ENCODING 82
SWIDTH 600 0
DWIDTH 12 0
BBX 18 20 -1 -4
BITMAP
000000
000000
000000
000000
00FC00
010400
010200
010200
020400
020800
03F000
041000
040800
040800
081000
080800
000000
000000
000000
000000
ENDCHAR
STARTCHAR S
ENCODING 83
SWIDTH 550 0
DWIDTH 11 0
BBX 17 20 -1 -4
BITMAP
000000
000000
000000
000000
007C00
010400
020200
020000
020000
01F000
000800
000800
000800
080800
082000
07C000
000000
000000
000000
000000
ENDCHAR
STARTCHAR T
ENCODING 84
SWIDTH 450 0
DWIDTH 9 0
BBX 15 20 -1 -4
BITMAP
0000
0000
0000
0000
03FE
0040
0040
0040
0080
0080
0080
0100
0100
0100
0200
0200
0000
0000
0000
0000
ENDCHAR
STARTCHAR U
ENCODING 85
SWIDTH 600 0
DWIDTH 12 0
BBX 18 20 -1 -4
BITMAP
000000
000000
000000
000000
008100
010200
010200
010200
020400
020400
020400
040800
040800
040800
042000
03C000
000000
000000
000000
000000
ENDCHAR
STARTCHAR V
ENCODING 86
SWIDTH 550 0
DWIDTH 11 0
BBX 17 20 -1 -4
BITMAP
000000
000000
000000
000000
020080
040100
020200
020200
020800
020800
011000
022000
014000
014000
010000
010000
000000
000000
000000
000000
ENDCHAR
STARTCHAR W
ENCODING 87
SWIDTH 750 0
DWIDTH 15 0
BBX 21 20 -1 -4
BITMAP
000000
000000
000000
000000
020008
040810
020820
020820
042840
022880
022880
028A00
028A00
010400
020800
020800
000000
000000
000000
000000
ENDCHAR
STARTCHAR X
ENCODING 88
SWIDTH 550 0
DWIDTH 11 0
BBX 17 20 -1 -4
BITMAP
000000
000000
000000
000000
020080
020200
010400
008800
00A000
004000
004000
014000
022000
041000
101000
200800
000000
000000
000000
000000
ENDCHAR
STARTCHAR Y
ENCODING 89
SWIDTH 550 0
DWIDTH 11 0
BBX 17 20 -1 -4
BITMAP
000000
000000
000000
000000
020080
020200
010400
008800
00A000
004000
004000
008000
008000
008000
010000
010000
000000
000000
000000
000000
ENDCHAR
STARTCHAR Z
ENCODING 90
SWIDTH 500 0
DWIDTH 10 0
BBX 16 20 -1 -4
BITMAP
0000
0000
0000
0000
01FF
0002
0004
0008
0020
0040
0080
0200
0400
0800
2000
3FE0
0000
0000
0000
0000
ENDCHAR
STARTCHAR bracketleft
ENCODING 91
SWIDTH 200 0
DWIDTH 4 0
BBX 10 20 -1 -4
BITMAP
0000
0000
0000
0000
0180
0200
0200
0200
0400
0400
0400
0800
0800
0800
1000
1000
1000
2000
3000
0000
ENDCHAR
STARTCHAR backslash
ENCODING 92
SWIDTH 200 0
DWIDTH 4 0
BBX 10 20 -1 -4
BITMAP
0000
0000
0000
0000
0200
0400
0400
0400
0400
0400
0400
0800
0400
0400
0800
0800
0400
0000
0000
0000
ENDCHAR
STARTCHAR bracketright
ENCODING 93
SWIDTH 200 0
DWIDTH 4 0
BBX 10 20 -1 -4
BITMAP
0000
0000
0000
0000
0180
0100
0100
0100
0200
0200
0200
0400
0400
0400
0800
0800
0800
1000
3000
0000
ENDCHAR
STARTCHAR asciicircum
ENCODING 94
SWIDTH 350 0
DWIDTH 7 0
BBX 13 20 -1 -4
BITMAP
0000
0000
0000
0040
00A0
0220
0000
0000
0000
0000
0000
0000
0000
0000
0000
0000
0000
0000
0000
0000
ENDCHAR
STARTCHAR underscore
ENCODING 95
SWIDTH 450 0
DWIDTH 9 0
BBX 15 20 -1 -4
BITMAP
0000
0000
0000
0000
0000
0000
0000
0000
0000
0000
0000
0000
0000
0000
0000
0000
0000
7FC0
0000
0000
ENDCHAR
STARTCHAR quoteleft
ENCODING 96
SWIDTH 250 0
DWIDTH 5 0
BBX 11 20 -1 -4
BITMAP
0000
0000
0000
0100
0080
0080
0000
0000
0000
0000
0000
0000
0000
0000
0000
0000
0000
0000
0000
0000
ENDCHAR
STARTCHAR a
ENCODING 97
SWIDTH 450 0
DWIDTH 9 0
BBX 15 20 -1 -4
BITMAP
0000
0000
0000
0000
0000
0000
0000
01F0
0410
0010
0010
07E0
0820
0820
1040
0FA0
0000
0000
0000
0000
ENDCHAR
STARTCHAR b
ENCODING 98
SWIDTH 450 0
DWIDTH 9 0
BBX 15 20 -1 -4
BITMAP
0000
0000
0000
0000
0100
0200
0200
02E0
0620
0410
0410
0820
0820
0820
1880
1700
0000
0000
0000
0000
ENDCHAR
STARTCHAR c
ENCODING 99
SWIDTH 400 0
DWIDTH 8 0
BBX 14 20 -1 -4
BITMAP
0000
0000
0000
0000
0000
0000
0000
00E0
0220
0410
0400
0800
0800
0820
0880
0700
0000
0000
0000
0000
ENDCHAR
STARTCHAR d
ENCODING 100
SWIDTH 450 0
DWIDTH 9 0
BBX 15 20 -1 -4
BITMAP
0000
0000
0000
0000
0004
0008
0008
00E8
0230
0410
0410
0820
0820
0820
08C0
0740
0000
0000
0000
0000
ENDCHAR
STARTCHAR e
ENCODING 101
SWIDTH 450 0
DWIDTH 9 0
BBX 15 20 -1 -4
BITMAP
0000
0000
0000
0000
0000
0000
0000
00E0
0220
0410
0410
0FE0
0800
0820
0880
0700
0000
0000
0000
0000
ENDCHAR
STARTCHAR f
ENCODING 102
SWIDTH 250 0
DWIDTH 5 0
BBX 11 20 -1 -4
BITMAP
0000
0000
0000
0000
0060
0100
0100
07C0
0200
0200
0200
0400
0400
0400
0800
0800
0000
0000
0000
0000
ENDCHAR
STARTCHAR g
ENCODING 103
SWIDTH 450 0
DWIDTH 9 0
BBX 15 20 -1 -4
BITMAP
0000
0000
0000
0000
0000
0000
0000
00E8
0230
0410
0410
0820
0820
0820
08C0
0740
0040
0080
0100
1E00
ENDCHAR
STARTCHAR h
ENCODING 104
SWIDTH 450 0
DWIDTH 9 0
BBX 15 20 -1 -4
BITMAP
0000
0000
0000
0000
0100
0200
0200
02E0
0620
0410
0410
0820
0820
0820
1040
1040
0000
0000
0000
0000
ENDCHAR
STARTCHAR i
ENCODING 105
SWIDTH 150 0
DWIDTH 3 0
BBX 9 20 -1 -4
BITMAP
0000
0000
0000
0000
0100
0000
0000
0200
0400
0400
0400
0800
0800
0800
1000
1000
0000
0000
0000
0000
ENDCHAR
STARTCHAR j
ENCODING 106
SWIDTH 150 0
DWIDTH 3 0
BBX 9 20 -1 -4
BITMAP
0000
0000
0000
0000
0100
0000
0000
0200
0400
0400
0400
0800
0800
0800
1000
1000
1000
2000
2000
4000
ENDCHAR
STARTCHAR k
ENCODING 107
SWIDTH 400 0
DWIDTH 8 0
BBX 14 20 -1 -4
BITMAP
0000
0000
0000
0000
0100
0200
0200
0210
0440
0480
0500
0E00
0900
0880
1080
1040
0000
0000
0000
0000
ENDCHAR
STARTCHAR l
ENCODING 108
SWIDTH 150 0
DWIDTH 3 0
BBX 9 20 -1 -4
BITMAP
0000
0000
0000
0000
0100
0200
0200
0200
0400
0400
0400
0800
0800
0800
1000
1000
0000
0000
0000
0000
ENDCHAR
STARTCHAR m
ENCODING 109
SWIDTH 650 0
DWIDTH 13 0
BBX 19 20 -1 -4
BITMAP
000000
000000
000000
000000
000000
000000
000000
02C600
065200
042100
042100
084200
084200
084200
108400
108400
000000
000000
000000
000000
ENDCHAR
STARTCHAR n
ENCODING 110
SWIDTH 450 0
DWIDTH 9 0
BBX 15 20 -1 -4
BITMAP
0000
0000
0000
0000
0000
0000
0000
02E0
0620
0410
0410
0820
0820
0820
1040
1040
0000
0000
0000
0000
ENDCHAR
STARTCHAR o
ENCODING 111
SWIDTH 450 0
DWIDTH 9 0
BBX 15 20 -1 -4
BITMAP
0000
0000
0000
0000
0000
0000
0000
00E0
0220
0410
0410
0820
0820
0820
0880
0700
0000
0000
0000
0000
ENDCHAR
STARTCHAR p
ENCODING 112
SWIDTH 450 0
DWIDTH 9 0
BBX 15 20 -1 -4
BITMAP
0000
0000
0000
0000
0000
0000
0000
02E0
0620
0410
0410
0820
0820
0820
1880
1700
1000
2000
2000
2000
ENDCHAR
STARTCHAR q
ENCODING 113
SWIDTH 450 0
DWIDTH 9 0
BBX 15 20 -1 -4
BITMAP
0000
0000
0000
0000
0000
0000
0000
00E8
0230
0410
0410
0820
0820
0820
08C0
0740
0040
0080
0080
0080
ENDCHAR
STARTCHAR r
ENCODING 114
SWIDTH 250 0
DWIDTH 5 0
BBX 11 20 -1 -4
BITMAP
0000
0000
0000
0000
0000
0000
0000
02C0
0600
0400
0400
0800
0800
0800
1000
1000
0000
0000
0000
0000
ENDCHAR
STARTCHAR s
ENCODING 115
SWIDTH 400 0
DWIDTH 8 0
BBX 14 20 -1 -4
BITMAP
0000
0000
0000
0000
0000
0000
0000
01E0
0420
0400
0400
0780
0040
0040
1080
0F00
0000
0000
0000
0000
ENDCHAR
STARTCHAR t
ENCODING 116
SWIDTH 250 0
DWIDTH 5 0
BBX 11 20 -1 -4
BITMAP
0000
0000
0000
0000
0080
0100
0100
07C0
0200
0200
0200
0400
0400
0400
0800
0400
0000
0000
0000
0000
ENDCHAR
STARTCHAR u
ENCODING 117
SWIDTH 450 0
DWIDTH 9 0
BBX 15 20 -1 -4
BITMAP
0000
0000
0000
0000
0000
0000
0000
0208
0410
0410
0410
0820
0820
0820
08C0
0740
0000
0000
0000
0000
ENDCHAR
STARTCHAR v
ENCODING 118
SWIDTH 350 0
DWIDTH 7 0
BBX 13 20 -1 -4
BITMAP
0000
0000
0000
0000
0000
0000
0000
0410
0820
0440
0440
0500
0500
0200
0400
0400
0000
0000
0000
0000
ENDCHAR
STARTCHAR w
ENCODING 119
SWIDTH 550 0
DWIDTH 11 0
BBX 17 20 -1 -4
BITMAP
000000
000000
000000
000000
000000
000000
000000
040100
084200
044400
044400
055000
055000
022000
044000
044000
000000
000000
000000
000000
ENDCHAR
STARTCHAR x
ENCODING 120
SWIDTH 350 0
DWIDTH 7 0
BBX 13 20 -1 -4
BITMAP
0000
0000
0000
0000
0000
0000
0000
0410
0440
0440
0280
0200
0500
0880
1100
2080
0000
0000
0000
0000
ENDCHAR
STARTCHAR y
ENCODING 121
SWIDTH 350 0
DWIDTH 7 0
BBX 13 20 -1 -4
BITMAP
0000
0000
0000
0000
0000
0000
0000
0410
0820
0440
0440
0500
0500
0200
0400
0800
0800
2000
2000
4000
ENDCHAR
STARTCHAR z
ENCODING 122
SWIDTH 400 0
DWIDTH 8 0
BBX 14 20 -1 -4
BITMAP
0000
0000
0000
0000
0000
0000
0000
03F0
0020
0040
0080
0200
0200
0400
1000
1F80
0000
0000
0000
0000
ENDCHAR
STARTCHAR braceleft
ENCODING 123
SWIDTH 250 0
DWIDTH 5 0
BBX 11 20 -1 -4
BITMAP
0000
0000
0000
0000
0040
0100
0100
0100
0200
0200
0200
0800
0400
0400
0800
0800
0800
1000
0800
0000
ENDCHAR
STARTCHAR bar
ENCODING 124
SWIDTH 250 0
DWIDTH 5 0
BBX 11 20 -1 -4
BITMAP
0000
0000
0000
0000
0080
0100
0100
0100
0200
0200
0200
0400
0400
0400
0800
0800
0800
0000
0000
0000
ENDCHAR
STARTCHAR braceright
ENCODING 125
SWIDTH 250 0
DWIDTH 5 0
BBX 11 20 -1 -4
BITMAP
0000
0000
0000
0000
0100
0100
0100
0100
0200
0200
0200
0200
0400
0400
0800
0800
0800
1000
2000
0000
ENDCHAR
STARTCHAR asciitilde
ENCODING 126
SWIDTH 450 0
DWIDTH 9 0
BBX 15 20 -1 -4
BITMAP
0000
0000
0000
00C4
0124
0230
0000
0000
0000
0000
0000
0000
0000
0000
0000
0000
0000
0000
0000
0000
ENDCHAR
STARTCHAR C177
ENCODING -1
SWIDTH 250 0
DWIDTH 5 0
BBX 11 20 -1 -4
BITMAP
0000
0000
0000
0000
01C0
0380
0380
0380
0700
0700
0700
0E00
0E00
0E00
1C00
1C00
0000
0000
0000
0000
ENDCHAR
STARTCHAR C200
ENCODING -1
SWIDTH 250 0
DWIDTH 5 0
BBX 11 20 -1 -4
BITMAP
0000
0000
0000
0000
01C0
0380
0380
0380
0700
0700
0700
0E00
0E00
0E00
1C00
1C00
0000
0000
0000
0000
ENDCHAR
STARTCHAR C201
ENCODING -1
SWIDTH 250 0
DWIDTH 5 0
BBX 11 20 -1 -4
BITMAP
0000
0000
0000
0000
01C0
0380
0380
0380
0700
0700
0700
0E00
0E00
0E00
1C00
1C00
0000
0000
0000
0000
ENDCHAR
STARTCHAR C202
ENCODING -1
SWIDTH 250 0
DWIDTH 5 0
BBX 11 20 -1 -4
BITMAP
0000
0000
0000
0000
01C0
0380
0380
0380
0700
0700
0700
0E00
0E00
0E00
1C00
1C00
0000
0000
0000
0000
ENDCHAR
STARTCHAR C203
ENCODING -1
SWIDTH 250 0
DWIDTH 5 0
BBX 11 20 -1 -4
BITMAP
0000
0000
0000
0000
01C0
0380
0380
0380
0700
0700
0700
0E00
0E00
0E00
1C00
1C00
0000
0000
0000
0000
ENDCHAR
STARTCHAR C204
ENCODING -1
SWIDTH 250 0
DWIDTH 5 0
BBX 11 20 -1 -4
BITMAP
0000
0000
0000
0000
01C0
0380
0380
0380
0700
0700
0700
0E00
0E00
0E00
1C00
1C00
0000
0000
0000
0000
ENDCHAR
STARTCHAR C205
ENCODING -1
SWIDTH 250 0
DWIDTH 5 0
BBX 11 20 -1 -4
BITMAP
0000
0000
0000
0000
01C0
0380
0380
0380
0700
0700
0700
0E00
0E00
0E00
1C00
1C00
0000
0000
0000
0000
ENDCHAR
STARTCHAR C206
ENCODING -1
SWIDTH 250 0
DWIDTH 5 0
BBX 11 20 -1 -4
BITMAP
0000
0000
0000
0000
01C0
0380
0380
0380
0700
0700
0700
0E00
0E00
0E00
1C00
1C00
0000
0000
0000
0000
ENDCHAR
STARTCHAR C207
ENCODING -1
SWIDTH 250 0
DWIDTH 5 0
BBX 11 20 -1 -4
BITMAP
0000
0000
0000
0000
01C0
0380
0380
0380
0700
0700
0700
0E00
0E00
0E00
1C00
1C00
0000
0000
0000
0000
ENDCHAR
STARTCHAR C210
ENCODING -1
SWIDTH 250 0
DWIDTH 5 0
BBX 11 20 -1 -4
BITMAP
0000
0000
0000
0000
01C0
0380
0380
0380
0700
0700
0700
0E00
0E00
0E00
1C00
1C00
0000
0000
0000
0000
ENDCHAR
STARTCHAR C211
ENCODING -1
SWIDTH 250 0
DWIDTH 5 0
BBX 11 20 -1 -4
BITMAP
0000
0000
0000
0000
01C0
0380
0380
0380
0700
0700
0700
0E00
0E00
0E00
1C00
1C00
0000
0000
0000
0000
ENDCHAR
STARTCHAR C212
ENCODING -1
SWIDTH 250 0
DWIDTH 5 0
BBX 11 20 -1 -4
BITMAP
0000
0000
0000
0000
01C0
0380
0380
0380
0700
0700
0700
0E00
0E00
0E00
1C00
1C00
0000
0000
0000
0000
ENDCHAR
STARTCHAR C213
ENCODING -1
SWIDTH 250 0
DWIDTH 5 0
BBX 11 20 -1 -4
BITMAP
0000
0000
0000
0000
01C0
0380
0380
0380
0700
0700
0700
0E00
0E00
0E00
1C00
1C00
0000
0000
0000
0000
ENDCHAR
STARTCHAR C214
ENCODING -1
SWIDTH 250 0
DWIDTH 5 0
BBX 11 20 -1 -4
BITMAP
0000
0000
0000
0000
01C0
0380
0380
0380
0700
0700
0700
0E00
0E00
0E00
1C00
1C00
0000
0000
0000
0000
ENDCHAR
STARTCHAR C215
ENCODING -1
SWIDTH 250 0
DWIDTH 5 0
BBX 11 20 -1 -4
BITMAP
0000
0000
0000
0000
01C0
0380
0380
0380
0700
0700
0700
0E00
0E00
0E00
1C00
1C00
0000
0000
0000
0000
ENDCHAR
STARTCHAR C216
ENCODING -1
SWIDTH 250 0
DWIDTH 5 0
BBX 11 20 -1 -4
BITMAP
0000
0000
0000
0000
01C0
0380
0380
0380
0700
0700
0700
0E00
0E00
0E00
1C00
1C00
0000
0000
0000
0000
ENDCHAR
STARTCHAR C217
ENCODING -1
SWIDTH 250 0
DWIDTH 5 0
BBX 11 20 -1 -4
BITMAP
0000
0000
0000
0000
01C0
0380
0380
0380
0700
0700
0700
0E00
0E00
0E00
1C00
1C00
0000
0000
0000
0000
ENDCHAR
STARTCHAR C220
ENCODING -1
SWIDTH 250 0
DWIDTH 5 0
BBX 11 20 -1 -4
BITMAP
0000
0000
0000
0000
01C0
0380
0380
0380
0700
0700
0700
0E00
0E00
0E00
1C00
1C00
0000
0000
0000
0000
ENDCHAR
STARTCHAR C221
ENCODING -1
SWIDTH 200 0
DWIDTH 4 0
BBX 10 20 -1 -4
BITMAP
0000
0000
0000
0000
0080
0200
0000
0000
0000
0000
0000
0000
0000
0000
0000
0000
0000
0000
0000
0000
ENDCHAR
STARTCHAR C222
ENCODING -1
SWIDTH 200 0
DWIDTH 4 0
BBX 10 20 -1 -4
BITMAP
0000
0000
0000
0000
0080
0200
0000
0000
0000
0000
0000
0000
0000
0000
0000
0000
0000
0000
0000
0000
ENDCHAR
STARTCHAR C223
ENCODING -1
SWIDTH 250 0
DWIDTH 5 0
BBX 11 20 -1 -4
BITMAP
0000
0000
0000
0000
01C0
0380
0380
0380
0700
0700
0700
0E00
0E00
0E00
1C00
1C00
0000
0000
0000
0000
ENDCHAR
STARTCHAR C224
ENCODING -1
SWIDTH 250 0
DWIDTH 5 0
BBX 11 20 -1 -4
BITMAP
0000
0000
0000
0000
01C0
0380
0380
0380
0700
0700
0700
0E00
0E00
0E00
1C00
1C00
0000
0000
0000
0000
ENDCHAR
STARTCHAR C225
ENCODING -1
SWIDTH 250 0
DWIDTH 5 0
BBX 11 20 -1 -4
BITMAP
0000
0000
0000
0000
01C0
0380
0380
0380
0700
0700
0700
0E00
0E00
0E00
1C00
1C00
0000
0000
0000
0000
ENDCHAR
STARTCHAR C226
ENCODING -1
SWIDTH 250 0
DWIDTH 5 0
BBX 11 20 -1 -4
BITMAP
0000
0000
0000
0000
01C0
0380
0380
0380
0700
0700
0700
0E00
0E00
0E00
1C00
1C00
0000
0000
0000
0000
ENDCHAR
STARTCHAR C227
ENCODING -1
SWIDTH 250 0
DWIDTH 5 0
BBX 11 20 -1 -4
BITMAP
0000
0000
0000
0000
01C0
0380
0380
0380
0700
0700
0700
0E00
0E00
0E00
1C00
1C00
0000
0000
0000
0000
ENDCHAR
STARTCHAR C230
ENCODING -1
SWIDTH 250 0
DWIDTH 5 0
BBX 11 20 -1 -4
BITMAP
0000
0000
0000
0000
01C0
0380
0380
0380
0700
0700
0700
0E00
0E00
0E00
1C00
1C00
0000
0000
0000
0000
ENDCHAR
STARTCHAR C231
ENCODING -1
SWIDTH 250 0
DWIDTH 5 0
BBX 11 20 -1 -4
BITMAP
0000
0000
0000
0000
01C0
0380
0380
0380
0700
0700
0700
0E00
0E00
0E00
1C00
1C00
0000
0000
0000
0000
ENDCHAR
STARTCHAR C232
ENCODING -1
SWIDTH 250 0
DWIDTH 5 0
BBX 11 20 -1 -4
BITMAP
0000
0000
0000
0000
01C0
0380
0380
0380
0700
0700
0700
0E00
0E00
0E00
1C00
1C00
0000
0000
0000
0000
ENDCHAR
STARTCHAR C233
ENCODING -1
SWIDTH 250 0
DWIDTH 5 0
BBX 11 20 -1 -4
BITMAP
0000
0000
0000
0000
01C0
0380
0380
0380
0700
0700
0700
0E00
0E00
0E00
1C00
1C00
0000
0000
0000
0000
ENDCHAR
STARTCHAR C234
ENCODING 176
SWIDTH 250 0
DWIDTH 5 0
BBX 11 20 -1 -4
BITMAP
0000
0000
0000
0000
01C0
0380
0380
0380
0700
0700
0700
0E00
0E00
0E00
1C00
1C00
0000
0000
0000
0000
ENDCHAR
STARTCHAR C235
ENCODING 178
SWIDTH 250 0
DWIDTH 5 0
BBX 11 20 -1 -4
BITMAP
0000
0000
0000
0000
01C0
0380
0380
0380
0700
0700
0700
0E00
0E00
0E00
1C00
1C00
0000
0000
0000
0000
ENDCHAR
STARTCHAR C236
ENCODING -1
SWIDTH 250 0
DWIDTH 5 0
BBX 11 20 -1 -4
BITMAP
0000
0000
0000
0000
01C0
0380
0380
0380
0700
0700
0700
0E00
0E00
0E00
1C00
1C00
0000
0000
0000
0000
ENDCHAR
STARTCHAR C237
ENCODING -1
SWIDTH 250 0
DWIDTH 5 0
BBX 11 20 -1 -4
BITMAP
0000
0000
0000
0000
01C0
0380
0380
0380
0700
0700
0700
0E00
0E00
0E00
1C00
1C00
0000
0000
0000
0000
ENDCHAR
STARTCHAR C240
ENCODING 160
SWIDTH 200 0
DWIDTH 4 0
BBX 10 20 -1 -4
BITMAP
0000
0000
0000
0000
0000
0000
0000
0000
0000
0000
0000
0000
0000
0000
0000
0000
0000
0000
0000
0000
ENDCHAR
STARTCHAR exclamdown
ENCODING 161
SWIDTH 200 0
DWIDTH 4 0
BBX 10 20 -1 -4
BITMAP
0000
0000
0000
0000
0000
0000
0000
0200
0000
0000
0400
0800
0800
0800
1000
1000
1000
2000
2000
0000
ENDCHAR
STARTCHAR cent
ENCODING 162
SWIDTH 450 0
DWIDTH 9 0
BBX 15 20 -1 -4
BITMAP
0000
0000
0000
0000
0000
0000
0008
00E8
0220
0450
0440
0900
0A00
0A20
0880
1700
1000
0000
0000
0000
ENDCHAR
STARTCHAR sterling
ENCODING 163
SWIDTH 450 0
DWIDTH 9 0
BBX 15 20 -1 -4
BITMAP
0000
0000
0000
0000
0070
0110
0110
0100
0100
07E0
0100
0200
0200
0400
0800
1FC0
0000
0000
0000
0000
ENDCHAR
STARTCHAR currency
ENCODING 164
SWIDTH 450 0
DWIDTH 9 0
BBX 15 20 -1 -4
BITMAP
0000
0000
0000
0000
0000
0208
01F0
0110
0220
0220
03E0
0820
0000
0000
0000
0000
0000
0000
0000
0000
ENDCHAR
STARTCHAR yen
ENCODING 165
SWIDTH 450 0
DWIDTH 9 0
BBX 15 20 -1 -4
BITMAP
0000
0000
0000
0000
0202
0404
0208
0110
0FF8
0080
0080
1FF0
0100
0100
0200
0200
0000
0000
0000
0000
ENDCHAR
STARTCHAR brokenbar
ENCODING 166
SWIDTH 250 0
DWIDTH 5 0
BBX 11 20 -1 -4
BITMAP
0000
0000
0000
0000
0080
0100
0100
0100
0200
0200
0000
0000
0400
0400
0800
0800
0800
1000
0000
0000
ENDCHAR
STARTCHAR section
ENCODING 167
SWIDTH 450 0
DWIDTH 9 0
BBX 15 20 -1 -4
BITMAP
0000
0000
0000
0000
0070
0110
0100
0180
0480
0440
0220
0220
0120
00C0
0080
0880
0700
0000
0000
0000
ENDCHAR
STARTCHAR dieresis
ENCODING 168
SWIDTH 250 0
DWIDTH 5 0
BBX 11 20 -1 -4
BITMAP
0000
0000
0000
0000
0140
0000
0000
0000
0000
0000
0000
0000
0000
0000
0000
0000
0000
0000
0000
0000
ENDCHAR
STARTCHAR copyright
ENCODING 191
SWIDTH 550 0
DWIDTH 11 0
BBX 17 20 -1 -4
BITMAP
000000
000000
000000
000000
007C00
030600
020200
047100
091200
090200
090200
122400
11C400
080C00
183000
07C000
000000
000000
000000
000000
ENDCHAR
STARTCHAR ordfeminine
ENCODING 170
SWIDTH 300 0
DWIDTH 6 0
BBX 12 20 -1 -4
BITMAP
0000
0000
0000
0000
00C0
0040
01C0
0240
0380
0000
0780
0000
0000
0000
0000
0000
0000
0000
0000
0000
ENDCHAR
STARTCHAR guillemotleft
ENCODING 171
SWIDTH 450 0
DWIDTH 9 0
BBX 15 20 -1 -4
BITMAP
0000
0000
0000
0000
0000
0000
0000
0000
0000
0000
0110
0440
0880
0440
0440
0000
0000
0000
0000
0000
ENDCHAR
STARTCHAR logicalnot
ENCODING 172
SWIDTH 450 0
DWIDTH 9 0
BBX 15 20 -1 -4
BITMAP
0000
0000
0000
0000
0000
0000
0000
0000
0000
0000
07F0
0020
0020
0000
0000
0000
0000
0000
0000
0000
ENDCHAR
STARTCHAR hyphen
ENCODING 173
SWIDTH 250 0
DWIDTH 5 0
BBX 11 20 -1 -4
BITMAP
0000
0000
0000
0000
0000
0000
0000
0000
0000
0000
0000
1F00
0000
0000
0000
0000
0000
0000
0000
0000
ENDCHAR
STARTCHAR registered
ENCODING 174
SWIDTH 550 0
DWIDTH 11 0
BBX 17 20 -1 -4
BITMAP
000000
000000
000000
007C00
018300
020200
04F100
048900
091200
09E200
092200
122400
080800
0C1800
07C000
000000
000000
000000
000000
000000
ENDCHAR
STARTCHAR macron
ENCODING 175
SWIDTH 450 0
DWIDTH 9 0
BBX 15 20 -1 -4
BITMAP
0000
0000
03FE
0000
0000
0000
0000
0000
0000
0000
0000
0000
0000
0000
0000
0000
0000
0000
0000
0000
ENDCHAR
STARTCHAR degree
ENCODING 156
SWIDTH 250 0
DWIDTH 5 0
BBX 11 20 -1 -4
BITMAP
0000
0000
0000
0000
00C0
0240
0240
0180
0000
0000
0000
0000
0000
0000
0000
0000
0000
0000
0000
0000
ENDCHAR
STARTCHAR plusminus
ENCODING 177
SWIDTH 450 0
DWIDTH 9 0
BBX 15 20 -1 -4
BITMAP
0000
0000
0000
0000
0000
0000
0000
0040
0080
0080
07F0
0100
0100
0100
0000
1FC0
0000
0000
0000
0000
ENDCHAR
STARTCHAR twosuperior
ENCODING 157
SWIDTH 250 0
DWIDTH 5 0
BBX 11 20 -1 -4
BITMAP
0000
0000
0000
0000
00C0
0240
0040
0080
0200
0780
0000
0000
0000
0000
0000
0000
0000
0000
0000
0000
ENDCHAR
STARTCHAR threesuperior
ENCODING 179
SWIDTH 250 0
DWIDTH 5 0
BBX 11 20 -1 -4
BITMAP
0000
0000
0000
0000
00C0
0240
0080
0040
0480
0300
0000
0000
0000
0000
0000
0000
0000
0000
0000
0000
ENDCHAR
STARTCHAR acute
ENCODING 180
SWIDTH 250 0
DWIDTH 5 0
BBX 11 20 -1 -4
BITMAP
0000
0000
0000
0040
0080
0200
0000
0000
0000
0000
0000
0000
0000
0000
0000
0000
0000
0000
0000
0000
ENDCHAR
STARTCHAR mu
ENCODING 181
SWIDTH 400 0
DWIDTH 8 0
BBX 14 20 -1 -4
BITMAP
0000
0000
0000
0000
0000
0000
0000
0210
0420
0420
0420
0840
0840
0840
1080
1F40
1000
2000
2000
0000
ENDCHAR
STARTCHAR paragraph
ENCODING 182
SWIDTH 400 0
DWIDTH 8 0
BBX 14 20 -1 -4
BITMAP
0000
0000
0000
0000
00FC
03D0
03D0
03D0
07A0
03A0
00A0
0140
0140
0140
0280
0280
0280
0000
0000
0000
ENDCHAR
STARTCHAR periodcentered
ENCODING 183
SWIDTH 200 0
DWIDTH 4 0
BBX 10 20 -1 -4
BITMAP
0000
0000
0000
0000
0000
0000
0000
0000
0000
0200
0000
0000
0000
0000
0000
0000
0000
0000
0000
0000
ENDCHAR
STARTCHAR cedilla
ENCODING 184
SWIDTH 250 0
DWIDTH 5 0
BBX 11 20 -1 -4
BITMAP
0000
0000
0000
0000
0000
0000
0000
0000
0000
0000
0000
0000
0000
0000
0000
0000
0800
0800
0800
3000
ENDCHAR
STARTCHAR onesuperior
ENCODING 185
SWIDTH 250 0
DWIDTH 5 0
BBX 11 20 -1 -4
BITMAP
0000
0000
0000
0000
0080
0300
0100
0100
0200
0200
0000
0000
0000
0000
0000
0000
0000
0000
0000
0000
ENDCHAR
STARTCHAR ordmasculine
ENCODING 186
SWIDTH 300 0
DWIDTH 6 0
BBX 12 20 -1 -4
BITMAP
0000
0000
0000
0000
00C0
0240
0240
0240
0300
0000
0780
0000
0000
0000
0000
0000
0000
0000
0000
0000
ENDCHAR
STARTCHAR guillemotright
ENCODING 187
SWIDTH 450 0
DWIDTH 9 0
BBX 15 20 -1 -4
BITMAP
0000
0000
0000
0000
0000
0000
0000
0000
0000
0000
0440
0440
0220
0440
1100
0000
0000
0000
0000
0000
ENDCHAR
STARTCHAR onequarter
ENCODING 188
SWIDTH 600 0
DWIDTH 12 0
BBX 18 20 -1 -4
BITMAP
000000
000000
000000
000000
008040
030100
010200
010400
021000
022000
004200
010C00
021400
042400
107800
200800
000000
000000
000000
000000
ENDCHAR
STARTCHAR onehalf
ENCODING 189
SWIDTH 600 0
DWIDTH 12 0
BBX 18 20 -1 -4
BITMAP
000000
000000
000000
000000
008040
030100
010200
010400
021000
022000
004C00
012400
020400
040800
102000
207800
000000
000000
000000
000000
ENDCHAR
STARTCHAR threequarters
ENCODING 190
SWIDTH 600 0
DWIDTH 12 0
BBX 18 20 -1 -4
BITMAP
000000
000000
000000
000000
00C040
024100
008200
004400
049000
032000
004200
010C00
021400
042400
107800
200800
000000
000000
000000
000000
ENDCHAR
STARTCHAR questiondown
ENCODING 169
SWIDTH 450 0
DWIDTH 9 0
BBX 15 20 -1 -4
BITMAP
0000
0000
0000
0000
0000
0000
0000
0040
0000
0000
0080
0100
0200
0400
1000
1000
1040
1100
0E00
0000
ENDCHAR
STARTCHAR cyr-A
ENCODING 225
SWIDTH 550 0
DWIDTH 11 0
BBX 17 20 -1 -4
BITMAP
000000
000000
000000
000000
001000
002000
005000
005000
011000
011000
020800
041000
0FF800
080800
200800
200800
000000
000000
000000
000000
ENDCHAR
STARTCHAR cyr-Be
ENCODING 226
SWIDTH 550 0
DWIDTH 11 0
BBX 17 20 -1 -4
BITMAP
000000
000000
000000
000000
00FE00
010000
010000
010000
020000
03F000
020800
040800
040800
040800
082000
0FC000
000000
000000
000000
000000
ENDCHAR
STARTCHAR cyr-Ve
ENCODING 247
SWIDTH 550 0
DWIDTH 11 0
BBX 17 20 -1 -4
BITMAP
000000
000000
000000
000000
00FC00
010400
010200
010200
020800
03F000
020800
040800
040800
040800
082000
0FC000
000000
000000
000000
000000
ENDCHAR
STARTCHAR cyr-Ghe
ENCODING 231
SWIDTH 550 0
DWIDTH 11 0
BBX 17 20 -1 -4
BITMAP
000000
000000
000000
000000
00FF00
010000
010000
010000
020000
020000
020000
040000
040000
040000
080000
080000
000000
000000
000000
000000
ENDCHAR
STARTCHAR cyr-De
ENCODING 228
SWIDTH 600 0
DWIDTH 12 0
BBX 18 20 -1 -4
BITMAP
000000
000000
000000
000000
003F00
004200
004200
004200
008400
008400
008400
010800
010800
010800
041000
1FF800
100800
201000
000000
000000
ENDCHAR
STARTCHAR cyr-Ie
ENCODING 229
SWIDTH 550 0
DWIDTH 11 0
BBX 17 20 -1 -4
BITMAP
000000
000000
000000
000000
00FF00
010000
010000
010000
020000
03F800
020000
040000
040000
040000
080000
0FF000
000000
000000
000000
000000
ENDCHAR
STARTCHAR cyr-Zhe
ENCODING 246
SWIDTH 750 0
DWIDTH 15 0
BBX 21 20 -1 -4
BITMAP
000000
000000
000000
000000
020408
020820
010840
008880
009200
005400
007C00
012400
022200
042100
104100
204080
000000
000000
000000
000000
ENDCHAR
STARTCHAR cyr-Ze
ENCODING 250
SWIDTH 550 0
DWIDTH 11 0
BBX 17 20 -1 -4
BITMAP
000000
000000
000000
000000
007E00
010200
000200
000200
000400
00F800
000400
000800
000800
000800
081000
07E000
000000
000000
000000
000000
ENDCHAR
STARTCHAR cyr-I
ENCODING 233
SWIDTH 550 0
DWIDTH 11 0
BBX 17 20 -1 -4
BITMAP
000000
000000
000000
000000
008200
010C00
010C00
011400
022800
024800
024800
051000
051000
061000
0C2000
082000
000000
000000
000000
000000
ENDCHAR
STARTCHAR cyr-I-short
ENCODING 234
SWIDTH 550 0
DWIDTH 11 0
BBX 17 20 -1 -4
BITMAP
000000
000000
004400
003800
008200
010C00
010C00
011400
022800
024800
024800
051000
051000
061000
0C2000
082000
000000
000000
000000
000000
ENDCHAR
STARTCHAR cyr-Ka
ENCODING 235
SWIDTH 500 0
DWIDTH 10 0
BBX 16 20 -1 -4
BITMAP
0000
0000
0000
0000
0082
0108
0110
0120
0280
0300
0280
0480
0440
0420
0820
0810
0000
0000
0000
0000
ENDCHAR
STARTCHAR cyr-El
ENCODING 236
SWIDTH 500 0
DWIDTH 10 0
BBX 16 20 -1 -4
BITMAP
0000
0000
0000
0000
007E
0084
0084
0084
0108
0108
0108
0210
0210
0210
0420
1820
0000
0000
0000
0000
ENDCHAR
STARTCHAR cyr-Em
ENCODING 237
SWIDTH 650 0
DWIDTH 13 0
BBX 19 20 -1 -4
BITMAP
000000
000000
000000
000000
008080
010100
018300
018300
028A00
028A00
025200
04A400
044400
044400
080800
080800
000000
000000
000000
000000
ENDCHAR
STARTCHAR cyr-En
ENCODING 238
SWIDTH 600 0
DWIDTH 12 0
BBX 18 20 -1 -4
BITMAP
000000
000000
000000
000000
008100
010200
010200
010200
020400
03FC00
020400
040800
040800
040800
081000
081000
000000
000000
000000
000000
ENDCHAR
STARTCHAR cyr-O
ENCODING 239
SWIDTH 600 0
DWIDTH 12 0
BBX 18 20 -1 -4
BITMAP
000000
000000
000000
000000
003C00
018600
010200
020100
040200
040200
040200
080400
080400
040800
0C3000
03C000
000000
000000
000000
000000
ENDCHAR
STARTCHAR cyr-Pe
ENCODING 240
SWIDTH 600 0
DWIDTH 12 0
BBX 18 20 -1 -4
BITMAP
000000
000000
000000
000000
00FF00
010200
010200
010200
020400
020400
020400
040800
040800
040800
081000
081000
000000
000000
000000
000000
ENDCHAR
STARTCHAR cyr-Er
ENCODING 242
SWIDTH 500 0
DWIDTH 10 0
BBX 16 20 -1 -4
BITMAP
0000
0000
0000
0000
00FC
0104
0102
0102
0204
0208
03F0
0400
0400
0400
0800
0800
0000
0000
0000
0000
ENDCHAR
STARTCHAR cyr-Es
ENCODING 243
SWIDTH 550 0
DWIDTH 11 0
BBX 17 20 -1 -4
BITMAP
000000
000000
000000
000000
003C00
018600
010200
020100
040000
040000
040000
080000
080400
040800
0C3000
03C000
000000
000000
000000
000000
ENDCHAR
STARTCHAR cyr-Te
ENCODING 244
SWIDTH 450 0
DWIDTH 9 0
BBX 15 20 -1 -4
BITMAP
0000
0000
0000
0000
03FE
0040
0040
0040
0080
0080
0080
0100
0100
0100
0200
0200
0000
0000
0000
0000
ENDCHAR
STARTCHAR cyr-U
ENCODING 245
SWIDTH 550 0
DWIDTH 11 0
BBX 17 20 -1 -4
BITMAP
000000
000000
000000
000000
010100
020200
010400
010400
011000
011000
00A000
014000
008000
008000
010000
0E0000
000000
000000
000000
000000
ENDCHAR
STARTCHAR cyr-Ef
ENCODING 230
SWIDTH 600 0
DWIDTH 12 0
BBX 18 20 -1 -4
BITMAP
000000
000000
000000
000000
003E00
019300
011100
021080
042100
042100
042100
084200
044400
064C00
03E000
008000
000000
000000
000000
000000
ENDCHAR
STARTCHAR cyr-Kha
ENCODING 232
SWIDTH 550 0
DWIDTH 11 0
BBX 17 20 -1 -4
BITMAP
000000
000000
000000
000000
020080
020200
010400
008800
00A000
004000
004000
014000
022000
041000
101000
200800
000000
000000
000000
000000
ENDCHAR
STARTCHAR cyr-Tse
ENCODING 227
SWIDTH 600 0
DWIDTH 12 0
BBX 18 20 -1 -4
BITMAP
000000
000000
000000
000000
008100
010200
010200
010200
020400
020400
020400
040800
040800
040800
081000
0FF800
000800
001000
000000
000000
ENDCHAR
STARTCHAR cyr-Che
ENCODING 254
SWIDTH 600 0
DWIDTH 12 0
BBX 18 20 -1 -4
BITMAP
000000
000000
000000
000000
008100
010200
010200
010200
020400
01FC00
000400
000800
000800
000800
001000
001000
000000
000000
000000
000000
ENDCHAR
STARTCHAR cyr-Sha
ENCODING 251
SWIDTH 750 0
DWIDTH 15 0
BBX 21 20 -1 -4
BITMAP
000000
000000
000000
000000
010410
020820
020820
020820
041040
041040
041040
082080
082080
082080
104100
1FFF00
000000
000000
000000
000000
ENDCHAR
STARTCHAR cyr-Shcha
ENCODING 253
SWIDTH 800 0
DWIDTH 16 0
BBX 22 20 -1 -4
BITMAP
000000
000000
000000
000000
010410
020820
020820
020820
041040
041040
041040
082080
082080
082080
104100
1FFF80
000080
000100
000000
000000
ENDCHAR
STARTCHAR cyr-Ier
ENCODING 255
SWIDTH 600 0
DWIDTH 12 0
BBX 18 20 -1 -4
BITMAP
000000
000000
000000
000000
01C000
008000
008000
008000
010000
01FC00
010200
020200
020200
020200
040800
07F000
000000
000000
000000
000000
ENDCHAR
STARTCHAR cyr-Iery
ENCODING 249
SWIDTH 700 0
DWIDTH 14 0
BBX 20 20 -1 -4
BITMAP
000000
000000
000000
000000
008020
010040
010040
010040
020080
03F880
020480
040500
040500
040500
081200
0FE200
000000
000000
000000
000000
ENDCHAR
STARTCHAR cyr-Ierik
ENCODING 248
SWIDTH 550 0
DWIDTH 11 0
BBX 17 20 -1 -4
BITMAP
000000
000000
000000
000000
008000
010000
010000
010000
020000
03F800
020400
040400
040400
040400
081000
0FE000
000000
000000
000000
000000
ENDCHAR
STARTCHAR cyr-E-rev
ENCODING 252
SWIDTH 600 0
DWIDTH 12 0
BBX 18 20 -1 -4
BITMAP
000000
000000
000000
000000
007E00
010200
020100
000100
000200
00FE00
000200
000400
000400
080400
081000
07E000
000000
000000
000000
000000
ENDCHAR
STARTCHAR cyr-Yu
ENCODING 224
SWIDTH 650 0
DWIDTH 13 0
BBX 19 20 -1 -4
BITMAP
000000
000000
000000
000000
010E00
026300
024100
028080
050100
070100
050100
0A0200
0A0200
090400
131800
10E000
000000
000000
000000
000000
ENDCHAR
STARTCHAR cyr-Ya
ENCODING 241
SWIDTH 550 0
DWIDTH 11 0
BBX 17 20 -1 -4
BITMAP
000000
000000
000000
000000
007E00
010400
020400
020400
040800
020800
01F800
009000
011000
021000
082000
102000
000000
000000
000000
000000
ENDCHAR
STARTCHAR cyr-a
ENCODING 193
SWIDTH 450 0
DWIDTH 9 0
BBX 15 20 -1 -4
BITMAP
0000
0000
0000
0000
0000
0000
0000
01F0
0410
0010
0010
07E0
0820
0820
1040
0FA0
0000
0000
0000
0000
ENDCHAR
STARTCHAR cyr-be
ENCODING 194
SWIDTH 450 0
DWIDTH 9 0
BBX 15 20 -1 -4
BITMAP
0000
0000
0000
0000
0004
00F0
0100
02E0
0620
0410
0410
0820
0820
0820
0880
0700
0000
0000
0000
0000
ENDCHAR
STARTCHAR cyr-ve
ENCODING 215
SWIDTH 450 0
DWIDTH 9 0
BBX 15 20 -1 -4
BITMAP
0000
0000
0000
0000
0000
0000
0000
03F0
0410
0410
0410
0FC0
0820
0820
1040
1F80
0000
0000
0000
0000
ENDCHAR
STARTCHAR cyr-ghe
ENCODING 199
SWIDTH 450 0
DWIDTH 9 0
BBX 15 20 -1 -4
BITMAP
0000
0000
0000
0000
0000
0000
0000
03F8
0400
0400
0400
0800
0800
0800
1000
1000
0000
0000
0000
0000
ENDCHAR
STARTCHAR cyr-de
ENCODING 196
SWIDTH 500 0
DWIDTH 10 0
BBX 16 20 -1 -4
BITMAP
0000
0000
0000
0000
0000
0000
0000
00F8
0110
0110
0110
0220
0220
0220
0840
1FE0
1020
2040
0000
0000
ENDCHAR
STARTCHAR cyr-ie
ENCODING 197
SWIDTH 450 0
DWIDTH 9 0
BBX 15 20 -1 -4
BITMAP
0000
0000
0000
0000
0000
0000
0000
00E0
0220
0410
0410
0FE0
0800
0820
0880
0700
0000
0000
0000
0000
ENDCHAR
STARTCHAR cyr-zhe
ENCODING 214
SWIDTH 650 0
DWIDTH 13 0
BBX 19 20 -1 -4
BITMAP
000000
000000
000000
000000
000000
000000
000000
021080
022200
012400
00A800
01F000
024800
044400
108400
208200
000000
000000
000000
000000
ENDCHAR
STARTCHAR cyr-z
ENCODING 218
SWIDTH 450 0
DWIDTH 9 0
BBX 15 20 -1 -4
BITMAP
0000
0000
0000
0000
0000
0000
0000
01F0
0410
0010
0010
03C0
0020
0820
1040
0F80
0000
0000
0000
0000
ENDCHAR
STARTCHAR cyr-i
ENCODING 201
SWIDTH 450 0
DWIDTH 9 0
BBX 15 20 -1 -4
BITMAP
0000
0000
0000
0000
0000
0000
0000
0208
0410
0430
0450
0920
0A20
0C20
1040
1040
0000
0000
0000
0000
ENDCHAR
STARTCHAR cyr-i-short
ENCODING 202
SWIDTH 450 0
DWIDTH 9 0
BBX 15 20 -1 -4
BITMAP
0000
0000
0000
0000
0000
0110
00E0
0208
0410
0430
0450
0920
0A20
0C20
1040
1040
0000
0000
0000
0000
ENDCHAR
STARTCHAR cyr-ka
ENCODING 203
SWIDTH 400 0
DWIDTH 8 0
BBX 14 20 -1 -4
BITMAP
0000
0000
0000
0000
0000
0000
0000
0210
0440
0480
0500
0E00
0900
0880
1080
1040
0000
0000
0000
0000
ENDCHAR
STARTCHAR cyr-el
ENCODING 204
SWIDTH 450 0
DWIDTH 9 0
BBX 15 20 -1 -4
BITMAP
0000
0000
0000
0000
0000
0000
0000
00F8
0110
0110
0110
0220
0220
0220
0440
1840
0000
0000
0000
0000
ENDCHAR
STARTCHAR cyr-em
ENCODING 205
SWIDTH 550 0
DWIDTH 11 0
BBX 17 20 -1 -4
BITMAP
000000
000000
000000
000000
000000
000000
000000
020200
060C00
051400
04A400
088800
080800
080800
101000
101000
000000
000000
000000
000000
ENDCHAR
STARTCHAR cyr-en
ENCODING 206
SWIDTH 450 0
DWIDTH 9 0
BBX 15 20 -1 -4
BITMAP
0000
0000
0000
0000
0000
0000
0000
0208
0410
0410
0410
0FE0
0820
0820
1040
1040
0000
0000
0000
0000
ENDCHAR
STARTCHAR cyr-o
ENCODING 207
SWIDTH 450 0
DWIDTH 9 0
BBX 15 20 -1 -4
BITMAP
0000
0000
0000
0000
0000
0000
0000
00E0
0220
0410
0410
0820
0820
0820
0880
0700
0000
0000
0000
0000
ENDCHAR
STARTCHAR cyr-pe
ENCODING 208
SWIDTH 450 0
DWIDTH 9 0
BBX 15 20 -1 -4
BITMAP
0000
0000
0000
0000
0000
0000
0000
03F8
0410
0410
0410
0820
0820
0820
1040
1040
0000
0000
0000
0000
ENDCHAR
STARTCHAR cyr-er
ENCODING 210
SWIDTH 450 0
DWIDTH 9 0
BBX 15 20 -1 -4
BITMAP
0000
0000
0000
0000
0000
0000
0000
02E0
0620
0410
0410
0820
0820
0820
1880
1700
1000
2000
2000
2000
ENDCHAR
STARTCHAR cyr-es
ENCODING 211
SWIDTH 400 0
DWIDTH 8 0
BBX 14 20 -1 -4
BITMAP
0000
0000
0000
0000
0000
0000
0000
00E0
0220
0410
0400
0800
0800
0820
0880
0700
0000
0000
0000
0000
ENDCHAR
STARTCHAR cyr-te
ENCODING 212
SWIDTH 450 0
DWIDTH 9 0
BBX 15 20 -1 -4
BITMAP
0000
0000
0000
0000
0000
0000
0000
03F8
0080
0080
0080
0100
0100
0100
0200
0200
0000
0000
0000
0000
ENDCHAR
STARTCHAR cyr-u
ENCODING 213
SWIDTH 350 0
DWIDTH 7 0
BBX 13 20 -1 -4
BITMAP
0000
0000
0000
0000
0000
0000
0000
0410
0820
0440
0440
0500
0500
0200
0400
0800
0800
2000
2000
4000
ENDCHAR
STARTCHAR cyr-ef
ENCODING 198
SWIDTH 450 0
DWIDTH 9 0
BBX 15 20 -1 -4
BITMAP
0000
0000
0000
0000
0000
0000
0040
00E0
02A0
0490
0490
0920
0920
0920
0A80
0700
0200
0400
0400
0400
ENDCHAR
STARTCHAR cyr-kha
ENCODING 200
SWIDTH 350 0
DWIDTH 7 0
BBX 13 20 -1 -4
BITMAP
0000
0000
0000
0000
0000
0000
0000
0410
0440
0440
0280
0200
0500
0880
1100
2080
0000
0000
0000
0000
ENDCHAR
STARTCHAR cyr-tse
ENCODING 195
SWIDTH 400 0
DWIDTH 8 0
BBX 14 20 -1 -4
BITMAP
0000
0000
0000
0000
0000
0000
0000
0210
0420
0420
0420
0840
0840
0840
1080
1FC0
0040
0080
0000
0000
ENDCHAR
STARTCHAR cyr-che
ENCODING 222
SWIDTH 450 0
DWIDTH 9 0
BBX 15 20 -1 -4
BITMAP
0000
0000
0000
0000
0000
0000
0000
0208
0410
0410
0410
07E0
0020
0020
0040
0040
0000
0000
0000
0000
ENDCHAR
STARTCHAR cyr-sha
ENCODING 219
SWIDTH 550 0
DWIDTH 11 0
BBX 17 20 -1 -4
BITMAP
000000
000000
000000
000000
000000
000000
000000
022200
044400
044400
044400
088800
088800
088800
111000
1FF000
000000
000000
000000
000000
ENDCHAR
STARTCHAR cyr-shcha
ENCODING 221
SWIDTH 550 0
DWIDTH 11 0
BBX 17 20 -1 -4
BITMAP
000000
000000
000000
000000
000000
000000
000000
022200
044400
044400
044400
088800
088800
088800
111000
1FF800
000800
001000
000000
000000
ENDCHAR
STARTCHAR cyr-ier
ENCODING 223
SWIDTH 500 0
DWIDTH 10 0
BBX 16 20 -1 -4
BITMAP
0000
0000
0000
0000
0000
0000
0000
0700
0200
0200
03F0
0410
0410
0410
0820
0FC0
0000
0000
0000
0000
ENDCHAR
STARTCHAR cyr-iery
ENCODING 217
SWIDTH 550 0
DWIDTH 11 0
BBX 17 20 -1 -4
BITMAP
000000
000000
000000
000000
000000
000000
000000
020200
040400
040400
07E400
082800
082800
082800
105000
1F9000
000000
000000
000000
000000
ENDCHAR
STARTCHAR cyr-ierik
ENCODING 216
SWIDTH 450 0
DWIDTH 9 0
BBX 15 20 -1 -4
BITMAP
0000
0000
0000
0000
0000
0000
0000
0200
0400
0400
07E0
0820
0820
0820
1040
1F80
0000
0000
0000
0000
ENDCHAR
STARTCHAR cyr-e-rev
ENCODING 220
SWIDTH 450 0
DWIDTH 9 0
BBX 15 20 -1 -4
BITMAP
0000
0000
0000
0000
0000
0000
0000
01E0
0420
0010
0010
03E0
0020
0020
1080
0F00
0000
0000
0000
0000
ENDCHAR
STARTCHAR cyr-yu
ENCODING 192
SWIDTH 550 0
DWIDTH 11 0
BBX 17 20 -1 -4
BITMAP
000000
000000
000000
000000
000000
000000
000000
023800
048800
050400
050400
0E0800
0A0800
0A0800
122000
11C000
000000
000000
000000
000000
ENDCHAR
STARTCHAR cyr-ya
ENCODING 209
SWIDTH 450 0
DWIDTH 9 0
BBX 15 20 -1 -4
BITMAP
0000
0000
0000
0000
0000
0000
0000
01F8
0410
0410
0410
07E0
0120
0220
0840
1040
0000
0000
0000
0000
ENDCHAR
ENDFONT
